<svg xmlns="http://www.w3.org/2000/svg" viewBox="0 0 1000 1000"><defs><style>.cls-1{fill:#fff;}.cls-2{fill:none;stroke:#ee761c;stroke-miterlimit:10;stroke-width:22px;}.cls-3{fill:#383938;}.cls-4{fill:#ee761c;}</style></defs><g id="Capa_4" data-name="Capa 4"><g id="ISO_2" data-name="ISO 2"><rect class="cls-1" width="1000" height="1000" rx="500"/></g><g id="ISO_2-2" data-name="ISO 2"><g id="Iso"><g id="Lines"><line class="cls-2" x1="300.57" y1="851.37" x2="263.71" y2="145"/><line class="cls-2" x1="887.71" y1="508.05" x2="263.71" y2="145"/><line class="cls-2" x1="545.19" y1="619.17" x2="887.71" y2="508.05"/><line class="cls-2" x1="675.83" y1="775.68" x2="887.71" y2="508.05"/><line class="cls-2" x1="675.83" y1="775.68" x2="300.57" y2="851.37"/><line class="cls-2" x1="545.19" y1="619.17" x2="300.57" y2="851.37"/><line class="cls-2" x1="263.71" y1="145" x2="551.26" y2="619.33"/></g><g id="Circles"><circle class="cls-3" cx="288.69" cy="179.44" r="73.51"/><circle class="cls-3" cx="867.45" cy="512.96" r="54.58"/><circle class="cls-3" cx="303.84" cy="839.12" r="54.95"/><ellipse class="cls-1" cx="543.01" cy="569.05" rx="195.21" ry="133.54"/><circle class="cls-4" cx="668.12" cy="769.14" r="50.11"/><circle class="cls-4" cx="718.26" cy="199.27" r="81.31"/><circle class="cls-4" cx="142.3" cy="505.49" r="64.33"/></g></g></g><g id="SIE"><g id="S"><path class="cls-4" d="M504.43,596.25q0,17.78-10.67,30.36a36.85,36.85,0,0,1-29,13.13H343.29q0-32.82,35-32.83h86.45q6.84,0,6.84-10.66t-6.84-10.67H376.4a36.87,36.87,0,0,1-29-13.13q-10.95-12.33-10.95-30.1a45,45,0,0,1,11.25-30.64q11.22-12.84,28.73-12.84H497.86q0,32.83-30.91,32.83H376.39q-6.84,0-6.84,10.67,0,10.41,6.84,10.4h88.37a36.87,36.87,0,0,1,29,13.13Q504.44,578.47,504.43,596.25Z"/></g><g id="I"><path class="cls-4" d="M550.93,639.74q-32.83,0-32.83-27.35V498.85q32.83,0,32.83,27.09Z"/></g><g id="E"><path class="cls-4" d="M685,531.41l-.28.27H682.8q-3.28.55-22.44,0H597.44v21.07H703.32a42.82,42.82,0,0,1-10.14,20.51q-10.95,12.86-28.45,12l-59.1.28h-8.19v21.34l62.37-.27,54.17-.28a42.8,42.8,0,0,1-10.14,20.53q-11,12.84-28.45,12.84H597.44q-32.81,0-32.81-32.82V532q0-33.11,32-33.11H714.53a42.77,42.77,0,0,1-10.14,20.52A35.93,35.93,0,0,1,685,531.41Z"/></g></g></g></svg>