<svg xmlns="http://www.w3.org/2000/svg" viewBox="0 0 1000 1000"><defs><style>.cls-1{fill:none;stroke:#000;stroke-miterlimit:10;stroke-width:7px;}</style></defs><g id="Capa_3" data-name="Capa 3"><g id="Mesa_7" data-name="Mesa 7"><g id="ISO_2" data-name="ISO 2"><g id="Iso"><g id="Lines"><line class="cls-1" x1="427.91" y1="483.36" x2="414.58" y2="228.01"/><line class="cls-1" x1="640.16" y1="359.25" x2="414.58" y2="228.01"/><line class="cls-1" x1="516.34" y1="399.42" x2="640.16" y2="359.25"/><line class="cls-1" x1="563.56" y1="456" x2="640.16" y2="359.25"/><line class="cls-1" x1="563.56" y1="456" x2="427.91" y2="483.36"/><line class="cls-1" x1="516.34" y1="399.42" x2="427.91" y2="483.36"/><line class="cls-1" x1="414.58" y1="228.01" x2="518.53" y2="399.48"/></g><g id="Circles"><circle cx="423.61" cy="240.45" r="26.57"/><circle cx="632.83" cy="361.02" r="19.73"/><circle cx="429.09" cy="478.93" r="19.86"/><circle cx="518.53" cy="398.78" r="36.74"/><circle cx="560.78" cy="453.63" r="18.11"/><circle cx="578.9" cy="247.62" r="29.39"/><circle cx="370.69" cy="358.32" r="23.25" transform="translate(-13.48 14.49) rotate(-2.2)"/></g></g></g><g id="logo"><g id="SOLUCIONES_INFORMÁTICAS" data-name="SOLUCIONES INFORMÁTICAS"><path d="M106.7,713.21a7.15,7.15,0,0,0-1.46-1.23,13,13,0,0,0-2-1.06,14.7,14.7,0,0,0-2.48-.78,13.5,13.5,0,0,0-2.8-.29c-2.48,0-4.32.47-5.5,1.4a4.65,4.65,0,0,0-1.77,3.85,3.86,3.86,0,0,0,.91,2.72,6.48,6.48,0,0,0,2.79,1.64q1.89.63,4.8,1.31a32,32,0,0,1,5.82,1.77,8.88,8.88,0,0,1,3.77,2.79,7.49,7.49,0,0,1,1.32,4.64,8.44,8.44,0,0,1-.89,4,7.68,7.68,0,0,1-2.47,2.81,11,11,0,0,1-3.73,1.63,19.44,19.44,0,0,1-4.64.53,21.86,21.86,0,0,1-4.8-.53,20.5,20.5,0,0,1-4.43-1.52,19.22,19.22,0,0,1-3.91-2.5l2-3.46A9.86,9.86,0,0,0,89,732.47a18.64,18.64,0,0,0,5.84,2.41,16.78,16.78,0,0,0,3.55.38,9.83,9.83,0,0,0,5.37-1.24,4.09,4.09,0,0,0,1.91-3.64,4,4,0,0,0-1.07-2.9,8.2,8.2,0,0,0-3.16-1.82c-1.4-.48-3.09-1-5.09-1.45a34.69,34.69,0,0,1-5.51-1.79,7.73,7.73,0,0,1-3.34-2.56,7.07,7.07,0,0,1-1.11-4.13,8.83,8.83,0,0,1,1.5-5.21,9.18,9.18,0,0,1,4.14-3.22,15.35,15.35,0,0,1,6-1.09,17.5,17.5,0,0,1,4.07.45,16.54,16.54,0,0,1,3.52,1.28,15.39,15.39,0,0,1,3,1.95Z"/><path d="M137.61,739a13.81,13.81,0,0,1-6.18-1.37,15.08,15.08,0,0,1-4.8-3.7,17.43,17.43,0,0,1-4.2-11.3,16.45,16.45,0,0,1,1.16-6.16,17.21,17.21,0,0,1,3.22-5.23,15.74,15.74,0,0,1,4.85-3.64,13.74,13.74,0,0,1,6-1.34,13.46,13.46,0,0,1,6.19,1.41,15.24,15.24,0,0,1,4.77,3.77,17.75,17.75,0,0,1,3.09,5.28,16.75,16.75,0,0,1,1.09,6,17,17,0,0,1-1.13,6.16A16.8,16.8,0,0,1,148.5,734a15.33,15.33,0,0,1-4.84,3.62A13.88,13.88,0,0,1,137.61,739Zm-11.05-16.37a14.44,14.44,0,0,0,.8,4.75,13.1,13.1,0,0,0,2.25,4.07,11,11,0,0,0,3.5,2.82,10,10,0,0,0,4.55,1,9.69,9.69,0,0,0,4.64-1.09,11,11,0,0,0,3.47-2.91,13.1,13.1,0,0,0,2.19-4.09,14.61,14.61,0,0,0,.75-4.59,14.24,14.24,0,0,0-.8-4.73,13.29,13.29,0,0,0-2.27-4.07,10.79,10.79,0,0,0-3.5-2.82,10.47,10.47,0,0,0-9.12,0,10.74,10.74,0,0,0-3.48,2.88,13.81,13.81,0,0,0-2.2,4.07A14,14,0,0,0,126.56,722.58Z"/><path d="M167.62,738.72V706.44h4.09v28.64h18v3.64Z"/><path d="M215.45,739a14.15,14.15,0,0,1-6.5-1.35,11.17,11.17,0,0,1-4.23-3.63,15.89,15.89,0,0,1-2.32-5.21,24.89,24.89,0,0,1-.73-6V706.44h4.1v16.32a22.67,22.67,0,0,0,.47,4.61,12.84,12.84,0,0,0,1.57,4,8,8,0,0,0,3,2.82,9.45,9.45,0,0,0,4.64,1,9.23,9.23,0,0,0,4.68-1.07,8,8,0,0,0,2.95-2.86,12.92,12.92,0,0,0,1.57-4,21.56,21.56,0,0,0,.48-4.55V706.44h4.09v16.32a25,25,0,0,1-.75,6.21,14.74,14.74,0,0,1-2.39,5.16,11.46,11.46,0,0,1-4.25,3.52A14.19,14.19,0,0,1,215.45,739Z"/><path d="M243.46,722.3a17,17,0,0,1,1-5.79,16.79,16.79,0,0,1,3-5.19,14.49,14.49,0,0,1,4.84-3.72,14.68,14.68,0,0,1,6.51-1.39,13.49,13.49,0,0,1,7.41,2,12.39,12.39,0,0,1,4.59,5.07l-3.23,2.09a9,9,0,0,0-2.43-3.25,9.13,9.13,0,0,0-3.18-1.71,12,12,0,0,0-3.35-.5,10.11,10.11,0,0,0-4.75,1.09,10.67,10.67,0,0,0-3.48,2.91A12.93,12.93,0,0,0,248.3,718a15.07,15.07,0,0,0-.7,4.53,14.09,14.09,0,0,0,.84,4.82,13.3,13.3,0,0,0,2.34,4.09,11.5,11.5,0,0,0,3.54,2.82,9.76,9.76,0,0,0,4.46,1,10.8,10.8,0,0,0,3.46-.59,10.53,10.53,0,0,0,3.31-1.84,8.81,8.81,0,0,0,2.46-3.25l3.41,1.86a10.33,10.33,0,0,1-3.09,4.1,15,15,0,0,1-4.66,2.54,15.81,15.81,0,0,1-5.07.87,13,13,0,0,1-6.09-1.44,15.45,15.45,0,0,1-4.8-3.82,17.92,17.92,0,0,1-3.14-5.36A17.14,17.14,0,0,1,243.46,722.3Z"/><path d="M285.65,738.72V706.44h4.09v32.28Z"/><path d="M319.66,739a13.78,13.78,0,0,1-6.18-1.37,15.08,15.08,0,0,1-4.8-3.7,17.37,17.37,0,0,1-4.21-11.3,16.65,16.65,0,0,1,1.16-6.16,17.24,17.24,0,0,1,3.23-5.23,15.7,15.7,0,0,1,4.84-3.64,13.78,13.78,0,0,1,6.05-1.34,13.44,13.44,0,0,1,6.18,1.41,15.39,15.39,0,0,1,4.78,3.77,18,18,0,0,1,3.09,5.28A17,17,0,0,1,330.55,734a15.45,15.45,0,0,1-4.84,3.62A13.91,13.91,0,0,1,319.66,739Zm-11.05-16.37a14.44,14.44,0,0,0,.8,4.75,13.1,13.1,0,0,0,2.25,4.07,10.9,10.9,0,0,0,3.5,2.82,9.91,9.91,0,0,0,4.54,1,9.66,9.66,0,0,0,4.64-1.09,10.88,10.88,0,0,0,3.48-2.91,13.29,13.29,0,0,0,2.18-4.09,14.61,14.61,0,0,0,.75-4.59,14.23,14.23,0,0,0-.79-4.73,13.11,13.11,0,0,0-2.28-4.07,10.69,10.69,0,0,0-3.5-2.82,10.45,10.45,0,0,0-9.11,0,10.54,10.54,0,0,0-3.48,2.88,13.84,13.84,0,0,0-2.21,4.07A14.26,14.26,0,0,0,308.61,722.58Z"/><path d="M353.76,714v24.74h-4.09V706.44h3.45l19.73,25.23V706.48H377v32.24h-3.73Z"/><path d="M415.68,735.08v3.64H393.77V706.44h21.5v3.63H397.86v10.46H413v3.41H397.86v11.14Z"/><path d="M449.33,713.21a7.15,7.15,0,0,0-1.46-1.23,12.58,12.58,0,0,0-2-1.06,14.7,14.7,0,0,0-2.48-.78,13.5,13.5,0,0,0-2.8-.29c-2.48,0-4.32.47-5.5,1.4a4.65,4.65,0,0,0-1.77,3.85,3.86,3.86,0,0,0,.91,2.72,6.55,6.55,0,0,0,2.79,1.64q1.89.63,4.8,1.31a32,32,0,0,1,5.82,1.77,8.88,8.88,0,0,1,3.77,2.79,7.49,7.49,0,0,1,1.32,4.64,8.56,8.56,0,0,1-.88,4,7.8,7.8,0,0,1-2.48,2.81,10.9,10.9,0,0,1-3.73,1.63A19.44,19.44,0,0,1,441,739a21.93,21.93,0,0,1-4.8-.53,20.68,20.68,0,0,1-4.43-1.52,19.22,19.22,0,0,1-3.91-2.5l2-3.46a9.86,9.86,0,0,0,1.88,1.53,18.09,18.09,0,0,0,2.64,1.38,17.75,17.75,0,0,0,3.21,1,16.62,16.62,0,0,0,3.54.38,9.81,9.81,0,0,0,5.37-1.24,4.09,4.09,0,0,0,1.91-3.64,4,4,0,0,0-1.07-2.9,8.13,8.13,0,0,0-3.16-1.82c-1.4-.48-3.09-1-5.09-1.45a34.21,34.21,0,0,1-5.5-1.79,7.76,7.76,0,0,1-3.35-2.56,7.07,7.07,0,0,1-1.11-4.13,8.83,8.83,0,0,1,1.5-5.21,9.18,9.18,0,0,1,4.14-3.22,15.35,15.35,0,0,1,5.95-1.09,17.5,17.5,0,0,1,4.07.45,16.62,16.62,0,0,1,3.53,1.28,15.62,15.62,0,0,1,3,1.95Z"/><path d="M487.75,738.72V706.44h4.09v32.28Z"/><path d="M512.75,714v24.74h-4.09V706.44h3.46l19.73,25.23V706.48h4.09v32.24h-3.73Z"/><path d="M552.76,738.72V706.44h21.33v3.63H556.85v10.78h14.51v3.41H556.85v14.46Z"/><path d="M600.87,739a13.83,13.83,0,0,1-6.19-1.37,14.94,14.94,0,0,1-4.79-3.7,17.37,17.37,0,0,1-4.21-11.3,16.65,16.65,0,0,1,1.16-6.16,17,17,0,0,1,3.23-5.23,15.7,15.7,0,0,1,4.84-3.64,13.75,13.75,0,0,1,6.05-1.34,13.44,13.44,0,0,1,6.18,1.41,15.24,15.24,0,0,1,4.77,3.77,17.78,17.78,0,0,1,3.1,5.28,17,17,0,0,1,1.09,6A17,17,0,0,1,611.76,734a15.37,15.37,0,0,1-4.85,3.62A13.87,13.87,0,0,1,600.87,739Zm-11-16.37a14.43,14.43,0,0,0,.79,4.75,13.1,13.1,0,0,0,2.25,4.07,11,11,0,0,0,3.5,2.82,10,10,0,0,0,4.55,1,9.69,9.69,0,0,0,4.64-1.09,11.1,11.1,0,0,0,3.48-2.91,13.29,13.29,0,0,0,2.18-4.09,14.61,14.61,0,0,0,.75-4.59,14.24,14.24,0,0,0-.8-4.73,13.09,13.09,0,0,0-2.27-4.07,10.69,10.69,0,0,0-3.5-2.82,10.47,10.47,0,0,0-9.12,0,10.6,10.6,0,0,0-3.47,2.88,13.84,13.84,0,0,0-2.21,4.07A14,14,0,0,0,589.82,722.58Z"/><path d="M630.87,738.72V706.44h13.82a8.61,8.61,0,0,1,3.91.88,10.12,10.12,0,0,1,3.1,2.37,11,11,0,0,1,2,3.32,10,10,0,0,1,.73,3.75,10.86,10.86,0,0,1-.84,4.23,9.69,9.69,0,0,1-2.37,3.41,8.24,8.24,0,0,1-3.56,2l7.82,12.37h-4.64l-7.37-11.6H635v11.6ZM635,723.49h9.78a4.71,4.71,0,0,0,2.93-.94,6.18,6.18,0,0,0,2-2.47,7.91,7.91,0,0,0,.7-3.32,6.88,6.88,0,0,0-.82-3.34,6.75,6.75,0,0,0-2.13-2.44,5.06,5.06,0,0,0-2.91-.91H635Z"/><path d="M697.75,738.72V714.08L687.11,733h-2.5l-10.68-18.95v24.64h-4.09V706.44h4.32l11.68,21,11.73-21h4.28v32.28Z"/><path d="M728.49,706.44h3.45l13.19,32.28h-4.37l-3.62-9.46H723.26l-3.64,9.46h-4.36Zm7.44,19.64-5.71-14.91-5.74,14.91Z"/><path d="M778.77,710.07H767.64v28.65h-4.1V710.07H752.4v-3.63h26.37Z"/><path d="M792.51,738.72V706.44h4.09v32.28Z"/><path d="M811.33,722.3a17,17,0,0,1,1-5.79,16.79,16.79,0,0,1,3-5.19,14.49,14.49,0,0,1,4.84-3.72,14.68,14.68,0,0,1,6.51-1.39,13.44,13.44,0,0,1,7.41,2,12.39,12.39,0,0,1,4.59,5.07l-3.23,2.09A9,9,0,0,0,833,712.1a9.13,9.13,0,0,0-3.18-1.71,12,12,0,0,0-3.35-.5,10.14,10.14,0,0,0-4.75,1.09,10.67,10.67,0,0,0-3.48,2.91,12.93,12.93,0,0,0-2.11,4.07,15.07,15.07,0,0,0-.7,4.53,14.09,14.09,0,0,0,.84,4.82,13.3,13.3,0,0,0,2.34,4.09,11.5,11.5,0,0,0,3.54,2.82,9.76,9.76,0,0,0,4.46,1,10.8,10.8,0,0,0,3.46-.59,10.53,10.53,0,0,0,3.31-1.84,8.71,8.71,0,0,0,2.46-3.25l3.41,1.86a10.33,10.33,0,0,1-3.09,4.1,15,15,0,0,1-4.66,2.54,15.71,15.71,0,0,1-5.07.87,13,13,0,0,1-6.09-1.44,15.45,15.45,0,0,1-4.8-3.82,17.92,17.92,0,0,1-3.14-5.36A17.14,17.14,0,0,1,811.33,722.3Z"/><path d="M862.89,706.44h3.45l13.19,32.28h-4.37l-3.62-9.46H857.66L854,738.72h-4.36Zm7.43,19.64-5.71-14.91-5.73,14.91Z"/><path d="M911.45,713.21A7.15,7.15,0,0,0,910,712a12.7,12.7,0,0,0-2-1.06,14.3,14.3,0,0,0-2.47-.78,13.5,13.5,0,0,0-2.8-.29q-3.74,0-5.5,1.4a4.65,4.65,0,0,0-1.77,3.85,3.9,3.9,0,0,0,.9,2.72,6.59,6.59,0,0,0,2.8,1.64q1.89.63,4.8,1.31a32,32,0,0,1,5.82,1.77,9,9,0,0,1,3.77,2.79,7.49,7.49,0,0,1,1.32,4.64,8.56,8.56,0,0,1-.89,4,7.68,7.68,0,0,1-2.47,2.81,11,11,0,0,1-3.73,1.63,19.44,19.44,0,0,1-4.64.53,21.86,21.86,0,0,1-4.8-.53,20.5,20.5,0,0,1-4.43-1.52,19,19,0,0,1-3.91-2.5l1.95-3.46a10.28,10.28,0,0,0,1.89,1.53,17.12,17.12,0,0,0,2.64,1.38,17.64,17.64,0,0,0,3.2,1,16.78,16.78,0,0,0,3.55.38,9.83,9.83,0,0,0,5.37-1.24,4.08,4.08,0,0,0,1.9-3.64,4,4,0,0,0-1.06-2.9,8.2,8.2,0,0,0-3.16-1.82c-1.4-.48-3.1-1-5.1-1.45a34.88,34.88,0,0,1-5.5-1.79,7.73,7.73,0,0,1-3.34-2.56,7.07,7.07,0,0,1-1.11-4.13,8.83,8.83,0,0,1,1.5-5.21,9.21,9.21,0,0,1,4.13-3.22,15.44,15.44,0,0,1,6-1.09,17.5,17.5,0,0,1,4.07.45,16.54,16.54,0,0,1,3.52,1.28,15,15,0,0,1,3,1.95Z"/></g><g id="EMANUEL"><path d="M147.27,602l-1.65.21H81.28v16.68h79.81a34.66,34.66,0,0,1-7.63,16.24A24.62,24.62,0,0,1,132,644.68l-50.73.22v16.89l87.85-.44a34.59,34.59,0,0,1-7.63,16.25,26.33,26.33,0,0,1-21.45,10.17H81.28q-24.75,0-24.75-26V602.45q0-26.19,24.13-26.2h88.88a34.46,34.46,0,0,1-7.63,16.24A26.94,26.94,0,0,1,147.27,602Z"/><path d="M293.06,687.77v-68l-44.13,48.29L204.8,619.78v45.69q0,22.31-24.74,22.3V597.69q0-21.45,26-21.44l42.89,50.89L292,576.25q25.79,0,25.78,20.79v69.08Q317.81,687.78,293.06,687.77Z"/><path d="M328.12,664V648.36q-.21-24.47,24.12-25.12h81.25V610.68q0-8.45-5.36-8.45l-82.69.44a34.42,34.42,0,0,1,7.63-16.24,26.31,26.31,0,0,1,21.45-10.18h53.61a26.81,26.81,0,0,1,21.76,10.18,37,37,0,0,1,8.35,24.25V664.6q0,23.17-23.71,23.17l-81.67.22Q328.13,687.78,328.12,664Zm105.37-.86V649.23H352.86v13.86Z"/><path d="M557,687.77,493.3,612.63V665.9q0,21.89-24.75,21.87V597.69q0-21.45,24.75-21.44L557,650.74V597.47q0-21.22,24.74-21.22v90.09Q581.76,687.78,557,687.77Z"/><path d="M722.4,653.12A36.77,36.77,0,0,1,714,677.38a26.89,26.89,0,0,1-21.65,10.18H622.18a26.77,26.77,0,0,1-21.75-10.18,37,37,0,0,1-8.36-24.26V576.25q24.75,0,24.75,21.65v55.22q0,8.45,5.36,8.45H692.3q5.15,0,5.15-8.45V576.25q24.94,0,24.95,21.65Z"/><path d="M823.45,602l-1.65.21H757.46v16.68h79.81a34.58,34.58,0,0,1-7.64,16.24,24.62,24.62,0,0,1-21.44,9.53l-50.73.22v16.89l87.85-.44a34.59,34.59,0,0,1-7.63,16.25,26.33,26.33,0,0,1-21.45,10.17H757.46q-24.75,0-24.75-26V602.45q0-26.19,24.13-26.2h88.88a34.56,34.56,0,0,1-7.63,16.24A26.94,26.94,0,0,1,823.45,602Z"/><path d="M856.24,576.25q24.94,0,25,21.65v54.58q0,9.3,9.69,9.31h26.4q26.18,0,26.19,26H890.88a33.45,33.45,0,0,1-24.54-10.07q-10.11-10.07-10.1-25.22Z"/></g></g></g></g></svg>